<svg  viewBox="0 0 241 367" fill="none" xmlns="http://www.w3.org/2000/svg">
<path d="M206.346 174.673C206.346 174.673 190.001 221.757 158.801 238.889" stroke="#DADEEB" stroke-width="1.26741" stroke-miterlimit="10" stroke-linecap="round"/>
<path d="M14.7225 242.095L66.9651 211.931C68.0764 211.288 68.9991 210.364 69.6406 209.251C70.2821 208.139 70.6198 206.878 70.6198 205.594C70.6198 204.31 70.2821 203.048 69.6406 201.936C68.9991 200.824 68.0764 199.9 66.9651 199.257L14.7225 169.097C13.6099 168.452 12.3472 168.113 11.0615 168.111C9.77579 168.11 8.51253 168.448 7.39888 169.091C6.28524 169.733 5.36052 170.658 4.71789 171.771C4.07525 172.885 3.73738 174.148 3.73827 175.434V235.737C3.73495 237.024 4.07091 238.289 4.71234 239.405C5.35377 240.521 6.27798 241.448 7.39182 242.092C8.50566 242.737 9.76978 243.077 11.0568 243.077C12.3437 243.078 13.6081 242.739 14.7225 242.095Z" stroke="#DADEEB" stroke-width="1.26741" stroke-miterlimit="10"/>
<path d="M157.356 138.29C157.356 138.29 160.385 153.241 157.356 163.034" stroke="#FF2633" stroke-width="1.68988" stroke-miterlimit="10" stroke-linecap="round"/>
<path d="M153.851 286.251C153.851 286.251 152.769 299.877 158.653 308.858C164.538 317.839 170.264 323.566 166.858 334.11L122.576 311.66L127.993 281L153.851 286.251Z" fill="#FF2633"/>
<path d="M154.479 303.736L144.349 301.716" stroke="white" stroke-width="1.42936" stroke-miterlimit="10" stroke-linecap="round"/>
<path d="M107.162 314.721C107.162 314.721 103.784 328.565 108.354 338.783C112.924 349.001 117.871 355.846 112.621 366.103L70.7607 335.658L81.4157 305L107.162 314.721Z" fill="#FF2633"/>
<path d="M104.99 334.774L94.4546 332.544" stroke="white" stroke-width="1.49021" stroke-miterlimit="10" stroke-linecap="round"/>
<path d="M139.478 100.124C139.478 100.124 142.186 86.4785 137.42 81.6792C132.655 76.88 124.898 74.7761 120.885 75.5661C118.156 76.1111 114.611 77.3573 114.125 84.5055C113.639 91.6537 114.712 94.0407 114.712 94.0407C114.712 94.0407 117.395 103.474 122.541 104.379C127.687 105.283 137.703 105.257 139.478 100.124Z" fill="#F3ABAA"/>
<path d="M120.977 76.166C120.977 76.166 120.673 79.6049 120.306 84.9914" stroke="#FF2633" stroke-width="0.844939" stroke-miterlimit="10" stroke-linecap="round"/>
<path d="M127.547 77.4249C127.547 77.4249 126.96 82.3213 126.022 87.7374C125.355 91.565 121.506 92.7394 119.922 89.5076" stroke="#FF2633" stroke-width="0.844939" stroke-miterlimit="10" stroke-linecap="round"/>
<path d="M132.924 80.3358C132.924 80.3358 132.079 86.9559 131.801 88.7851C131.522 90.6144 130.36 91.9156 129.084 91.9156C127.099 91.9156 126.283 91.0116 125.81 89.5076" stroke="#FF2633" stroke-width="0.844939" stroke-miterlimit="10" stroke-linecap="round"/>
<path d="M131.793 90.116C131.793 90.116 132.756 91.9579 133.719 92.2959C134.683 92.6339 136.613 92.7184 137.184 91.3834C137.665 90.2554 137.952 88.781 137.855 86.5208" stroke="#FF2633" stroke-width="0.844939" stroke-miterlimit="10" stroke-linecap="round"/>
<path d="M123.288 96.3221C123.288 96.3221 126.435 93.0479 125.02 88.5909C123.605 84.1338 121.56 86.4785 121.56 86.4785C121.56 86.4785 117.128 90.5934 115.971 92.1438C115.058 93.369 113.613 96.791 115.029 98.7513C116.188 100.321 117.661 101.633 119.355 102.604C119.921 102.896 121.497 104.087 124.002 102.921C124.213 102.82 127.458 100.479 123.288 96.3221Z" fill="#F3ABAA"/>
<path d="M60.4713 216.058C60.4713 216.058 51.7854 205.29 49.8589 194.09L116.153 181.788L152.02 202.653C161.184 207.322 171.653 221.073 166.777 243.523C162.43 263.548 157.694 291.055 157.648 291.351C151.826 294.485 145.105 295.529 138.607 294.308C133.293 293.236 128.297 290.955 124.007 287.642C124.159 286.708 131.374 256.577 134.264 240.591C135.232 235.238 135.151 230.697 130.356 228.124C130.356 228.124 119.583 223.168 116.153 221.403C114.518 220.558 111.713 218.868 108.899 217.127C116.503 226.667 118.578 230.089 119.883 232.277C124.159 239.459 129.676 244.997 126.178 268.888C124.56 279.94 120.508 290.557 114.771 307.684C113.479 311.536 112.106 315.71 110.652 320.311C110.652 320.311 100.881 321.84 91.2567 318.621C80.9865 315.199 76.8336 306.974 76.8336 306.974C94.5773 266.032 94.5182 259.628 89.7273 248.436C87.7502 243.798 71.8189 228.838 60.4713 216.058Z" fill="#0D0F44"/>
<path d="M108.396 215.281L110.124 209.181" stroke="white" stroke-width="0.844939" stroke-miterlimit="10" stroke-linecap="round"/>
<path d="M112.397 314.857C112.397 314.857 96.0218 318.659 83.1618 306.851" stroke="white" stroke-width="0.844939" stroke-miterlimit="10" stroke-linecap="round"/>
<path d="M158.573 286.066C158.573 286.066 149.054 291.376 138.117 287.789" stroke="white" stroke-width="0.844939" stroke-miterlimit="10" stroke-linecap="round"/>
<path d="M31.0127 138.569C38.0468 120.107 56.3862 107.94 68.5703 104.548C74.6013 102.267 81.173 101.826 87.4547 103.28C104.353 104.666 119.803 122.164 119.803 122.164C120.01 115.967 120.141 106.533 120.179 103.55C120.185 102.922 120.428 102.318 120.859 101.861C122.384 100.259 126.309 96.6896 130.656 97.2134C133.557 97.5886 136.303 98.7403 138.603 100.547C139.301 101.094 139.815 101.841 140.077 102.689C155.316 152.308 150.893 163.723 143.757 168.311C137.019 172.645 131.653 168.26 125.46 164.509C125.95 168.404 126.351 172.536 126.63 176.95C126.63 176.95 127.589 185.543 120.255 189.308C104.738 197.263 91.0034 204.863 50.8857 196.608C50.8857 196.608 49.5296 193.583 47.8819 188.484C45.3301 189.018 42.6906 188.969 40.1604 188.34C37.6301 187.712 35.2743 186.52 33.2687 184.855C25.2375 179.688 23.0618 159.435 31.0127 138.569Z" fill="#22319E"/>
<path d="M51.452 132.321C51.452 132.321 48.7904 148.184 49.8593 152.996" stroke="white" stroke-width="0.844939" stroke-miterlimit="10" stroke-linecap="round"/>
<path d="M104.894 116.034C104.894 116.034 116.516 124.243 124.598 160.537" stroke="white" stroke-width="0.844939" stroke-miterlimit="10" stroke-linecap="round"/>
<path d="M45.2335 164.371C43.2954 163.4 43.1496 159.767 44.9078 156.256C46.6661 152.745 49.6626 150.685 51.6008 151.656C53.5389 152.626 53.6848 156.259 51.9265 159.771C50.1682 163.282 47.1717 165.341 45.2335 164.371Z" fill="#F3ABAA"/>
<path d="M11.8538 47.7676C11.8538 47.7676 7.87411 62.6512 12.7198 69.736C16.5812 75.376 10.5441 74.5986 10.5441 74.5986C10.5441 74.5986 4.31694 74.6535 5.21257 61.4302C6.01949 49.4828 11.8538 47.7676 11.8538 47.7676Z" fill="#FFD550"/>
<path d="M44.4653 1.00869C42.298 -0.381235 39.628 -0.229146 37.2833 0.822803C32.7629 2.85066 23.2108 8.31319 18.8087 11.4733C12.9195 15.698 8.2005 19.2045 3.93778 23.1292C1.3227 25.5415 -1.31773 30.928 0.731251 36.1244C3.5111 43.1796 8.54271 53.4794 20.4732 58.1646C23.8277 59.4785 28.7663 58.6209 31.4575 56.2212C39.5351 49.0393 54.4947 34.3415 56.9366 24.3628C57.1772 23.3625 57.1185 22.3135 56.7676 21.3464C55.4368 17.6455 51.6388 5.60093 44.4653 1.00869Z" fill="#FF2633"/>
<path d="M54.8113 34.2951C54.8113 34.2951 53.5861 29.1959 44.9551 22.1026C43.3708 20.8014 41.1951 19.9903 39.2771 20.7C35.0524 22.3054 27.7817 26.4033 21.3517 39.0225C20.8809 39.9936 20.6848 41.075 20.7846 42.1496C20.8844 43.2242 21.2763 44.2509 21.9178 45.1187C24.1316 48.1774 27.5705 51.6501 39.2729 55.4693L54.8113 34.2951Z" fill="#FF2633"/>
<path d="M38.7224 55.1781C36.6681 53.5328 38.6409 47.6564 43.1288 42.0526C47.6167 36.4488 52.9201 33.2398 54.9744 34.885C57.0287 36.5302 55.0559 42.4067 50.5681 48.0104C46.0802 53.6142 40.7767 56.8233 38.7224 55.1781Z" fill="#0D0F44"/>
<path d="M62.3734 53.0315C62.3734 53.0315 56.8813 56.4408 57.1052 64.9156C57.1052 64.9156 54.4647 63.9059 52.6016 65.0001C49.6824 66.6899 48.1953 73.6565 52.2679 81.2356C52.2679 81.2356 56.4588 93.7914 61.9298 90.3313L78.1526 71.3962L62.3734 53.0315Z" fill="#0D0F44"/>
<path d="M78.6216 85.0125C79.213 93.2168 84.9206 105.38 84.9206 105.38C84.9206 105.38 79.006 111.991 63.4803 108.24C63.4803 108.24 62.8677 100.259 62.7832 97.8344C62.4072 87.3656 64.0802 83.6014 64.2027 85.4349L78.6216 85.0125Z" fill="#F3ABAA"/>
<path d="M81.5995 97.1923C81.5995 97.1923 70.6153 99.7271 62.8208 91.3411C62.8419 90.9989 62.863 90.6736 62.8884 90.361L79.6519 90.8764C80.1969 93.031 80.894 95.2025 81.5995 97.1923Z" fill="#0D0F44"/>
<path d="M73.2173 94.6405C63.8703 94.6405 56.2931 87.0633 56.2931 77.7164C56.2931 68.3694 63.8703 60.7922 73.2173 60.7922C82.5642 60.7922 90.1414 68.3694 90.1414 77.7164C90.1414 87.0633 82.5642 94.6405 73.2173 94.6405Z" fill="#F3ABAA"/>
<path d="M56.6777 81.6877C57.717 83.7028 58.8239 83.5043 59.1407 82.8537C60.011 81.0455 59.297 79.4739 60.2222 73.5593C60.5559 71.6164 61.5825 69.8603 63.1119 68.6164C67.645 64.679 74.9411 65.638 75.0805 65.6592C76.8675 65.7563 78.5954 66.3647 80.1881 66.8167C92.9763 70.45 93.3945 62.3005 93.3945 58.7645C93.3945 52.7823 88.6713 47.9281 82.8328 47.9281C80.9939 47.9384 79.19 48.4312 77.6013 49.3572C76.0125 50.2832 74.6946 51.6099 73.7793 53.2047C72.084 51.5781 69.8255 50.6699 67.476 50.6699C62.3515 50.6699 58.1817 54.9369 58.1817 60.1966C58.1776 61.7596 58.5515 63.3003 59.2717 64.6875C56.965 66.2506 55.9468 69.7994 55.6131 71.1766C54.9076 74.0705 55.4187 79.2416 56.6777 81.6877Z" fill="#0D0F44"/>
<path d="M70.3142 75.6411C70.1613 74.327 70.5596 73.2009 71.2038 73.1259C71.8481 73.0509 72.4944 74.0554 72.6474 75.3695C72.8004 76.6835 72.4021 77.8096 71.7578 77.8846C71.1135 77.9596 70.4672 76.9551 70.3142 75.6411Z" fill="#0D0F44"/>
<path d="M79.0967 74.6148C78.9437 73.3007 79.342 72.1747 79.9863 72.0997C80.6306 72.0247 81.2769 73.0291 81.4299 74.3432C81.5829 75.6573 81.1846 76.7833 80.5403 76.8583C79.896 76.9333 79.2497 75.9289 79.0967 74.6148Z" fill="#0D0F44"/>
<path d="M71.4735 85.963C71.4735 85.963 68.3894 87.1839 67.1136 83.3057" stroke="#0D0F44" stroke-width="0.844939" stroke-miterlimit="10" stroke-linecap="round"/>
<path d="M54.9769 85.0583C52.4947 83.2509 51.4756 80.4218 52.7007 78.7393C53.9257 77.0568 56.9311 77.1581 59.4133 78.9655C61.8956 80.773 62.9147 83.6021 61.6896 85.2846C60.4645 86.967 57.4591 86.8658 54.9769 85.0583Z" fill="#F3ABAA"/>
<path d="M59.1413 82.8536L54.1435 80.7159" stroke="#0D0F44" stroke-width="0.844939" stroke-miterlimit="10" stroke-linecap="round"/>
<path d="M75.9261 75.5534L77.0288 80.2682C77.0606 80.4051 77.0637 80.5472 77.0377 80.6854C77.0117 80.8236 76.9572 80.9549 76.8777 81.0709C76.7983 81.1869 76.6956 81.2851 76.5761 81.3593C76.4566 81.4335 76.3231 81.482 76.1838 81.5018L75.0516 81.6834" stroke="#0D0F44" stroke-width="0.844939" stroke-miterlimit="10" stroke-linecap="round"/>
<path d="M204.601 132.616L198.792 137.2C198.483 137.446 198.12 137.612 197.733 137.686C197.346 137.759 196.946 137.738 196.569 137.623L189.502 135.438C189.068 135.304 188.606 135.293 188.166 135.407C187.727 135.522 187.329 135.757 187.017 136.087C186.704 136.416 186.491 136.826 186.4 137.271C186.309 137.716 186.344 138.177 186.502 138.603L189.071 145.54C189.208 145.909 189.253 146.307 189.202 146.697C189.151 147.088 189.006 147.461 188.779 147.783L184.516 153.833C184.255 154.203 184.103 154.64 184.076 155.092C184.05 155.545 184.151 155.996 184.368 156.394C184.584 156.792 184.908 157.122 185.303 157.346C185.697 157.57 186.146 157.679 186.599 157.66L193.992 157.365C194.386 157.348 194.779 157.428 195.135 157.598C195.491 157.767 195.801 158.021 196.037 158.336L200.473 164.251C200.746 164.61 201.113 164.887 201.533 165.049C201.954 165.212 202.412 165.254 202.855 165.171C203.299 165.088 203.71 164.884 204.044 164.58C204.378 164.277 204.62 163.886 204.744 163.452L206.759 156.313C206.867 155.934 207.064 155.586 207.335 155.3C207.606 155.014 207.942 154.797 208.314 154.669L215.306 152.299C215.736 152.153 216.116 151.89 216.403 151.539C216.691 151.189 216.875 150.764 216.934 150.314C216.993 149.865 216.924 149.407 216.737 148.994C216.549 148.581 216.25 148.229 215.872 147.977L209.717 143.871C209.388 143.653 209.118 143.358 208.93 143.012C208.741 142.666 208.64 142.279 208.635 141.885L208.546 134.488C208.542 134.033 208.409 133.588 208.163 133.204C207.918 132.821 207.57 132.514 207.158 132.319C206.747 132.124 206.289 132.048 205.837 132.101C205.385 132.153 204.956 132.332 204.601 132.616Z" fill="#FFD550"/>
<path d="M166.794 88.2107L225.547 102.946C226.087 103.084 226.649 103.112 227.2 103.027C227.751 102.942 228.279 102.747 228.753 102.453C229.226 102.159 229.635 101.772 229.956 101.316C230.276 100.86 230.501 100.344 230.617 99.799L240.139 55.2411C240.258 54.6857 240.262 54.1116 240.15 53.5546C240.038 52.9977 239.812 52.4697 239.487 52.0037C239.162 51.5377 238.745 51.1435 238.261 50.8458C237.777 50.548 237.237 50.353 236.675 50.2729L176.604 41.7052C175.564 41.5533 174.505 41.8027 173.642 42.4029C172.779 43.0031 172.176 43.9091 171.957 44.9371L163.765 83.3269C163.54 84.3747 163.729 85.4691 164.294 86.3799C164.859 87.2908 165.755 87.947 166.794 88.2107Z" fill="#BEDDFA"/>
<path d="M163.723 83.5086C163.723 83.4494 163.723 83.3903 163.753 83.3269L163.808 83.1579C163.863 83.1579 169.093 84.7506 177.213 76.2548C186.321 66.7323 193.926 67.5096 199.532 69.2502C201.096 69.7732 202.57 70.5357 203.9 71.5104C205.588 69.6791 207.772 68.3785 210.186 67.7673C214.086 66.6985 220.3 68.2405 228.661 72.3554C231.297 73.6481 233.731 75.0085 235.678 76.1576L235.594 76.5336C229.105 72.7314 216.819 66.3309 210.284 68.1264C207.95 68.7172 205.838 69.9702 204.2 71.7343C207.977 74.5184 211.492 78.9924 212.354 83.5635C213.063 87.3235 211.859 90.5723 208.868 92.9634C208.14 93.5953 207.194 93.9181 206.232 93.8633C205.911 93.836 205.595 93.7635 205.294 93.6478C202.759 92.6804 200.917 88.9711 200.398 85.811C199.936 82.7114 200.171 79.5478 201.086 76.5505C201.626 74.8088 202.501 73.1897 203.663 71.785C202.375 70.8458 200.95 70.1092 199.439 69.6009C193.947 67.8899 186.465 67.1336 177.47 76.5125C169.376 84.9745 164.188 83.648 163.723 83.5086ZM201.42 76.6603C200.518 79.605 200.286 82.7142 200.74 85.7603C201.234 88.7176 203.055 92.3931 205.413 93.3056C206.502 93.7281 207.584 93.5084 208.627 92.6761C210.005 91.6556 211.057 90.2578 211.657 88.6518C212.257 87.0458 212.378 85.3005 212.007 83.6269C211.162 79.1276 207.69 74.7254 203.98 71.9963C202.825 73.3652 201.955 74.9509 201.42 76.6603Z" fill="white"/>
<path d="M63.0992 197.035L113.952 188.805C115.874 188.494 117.606 187.464 118.797 185.925C119.989 184.385 120.551 182.45 120.369 180.512L117.053 145.024C116.694 141.222 113.369 138.806 109.546 138.637C101.599 138.29 92.5454 138.007 81.7344 138.987C71.3289 139.934 63.4879 141.129 57.455 142.156C50.3618 143.36 47.7636 147.399 48.2832 152.933L51.5743 188.116C51.7008 189.477 52.1057 190.797 52.7638 191.995C53.4219 193.192 54.3192 194.242 55.4 195.078C56.4807 195.915 57.7219 196.52 59.0464 196.856C60.3708 197.193 61.7503 197.253 63.0992 197.035Z" fill="white"/>
<path d="M93.7277 181.661L97.0399 177.364L102.084 178.67C100.273 173.782 97.9328 169.107 95.105 164.728L87.7202 169.637C90.1431 173.421 92.1569 177.452 93.7277 181.661ZM87.7202 169.637L91.4126 167.174L87.7202 169.633V169.637Z" fill="#FF2633"/>
<path d="M83.2671 182.295C84.957 175.573 85.4808 167.952 85.502 167.631L76.6301 167.048C76.6301 167.119 76.1443 174.2 74.6487 180.123L79.7184 178.26L83.2671 182.295Z" fill="#FF2633"/>
<path d="M95.1014 164.716C95.1733 164.817 95.883 165.89 96.88 167.618C95.1461 170.144 92.5996 172 89.6643 172.878C88.5827 170.943 87.7716 169.709 87.7209 169.637L91.4133 167.179L95.1014 164.716Z" fill="#0D0F44"/>
<path d="M76.6477 167.048L85.5195 167.631C85.5195 167.808 85.3421 170.229 84.9112 173.499C81.7718 173.396 78.7608 172.228 76.3731 170.187C76.5632 168.324 76.6477 167.077 76.6477 167.048Z" fill="#0D0F44"/>
<path d="M72.0244 159.483C71.7384 152.602 77.5086 146.773 84.9126 146.466C92.3165 146.158 98.5505 151.487 98.8365 158.369C99.1225 165.251 93.3523 171.079 85.9484 171.387C78.5444 171.695 72.3104 166.365 72.0244 159.483Z" fill="#FF2633"/>
<path d="M84.104 153.355L83.1999 155.992C83.1504 156.131 83.0682 156.257 82.9602 156.358C82.8521 156.46 82.7214 156.534 82.5789 156.575L79.892 157.318C79.7277 157.364 79.5796 157.456 79.4643 157.582C79.3491 157.707 79.2713 157.863 79.2397 158.031C79.208 158.199 79.2239 158.372 79.2854 158.531C79.3469 158.69 79.4517 158.829 79.5878 158.932L81.8142 160.622C81.9327 160.711 82.0277 160.827 82.091 160.961C82.1543 161.095 82.184 161.243 82.1776 161.391L82.0551 164.175C82.0479 164.346 82.0886 164.515 82.1726 164.664C82.2566 164.812 82.3804 164.935 82.5302 165.017C82.68 165.099 82.8498 165.138 83.0204 165.129C83.191 165.119 83.3556 165.063 83.4957 164.965L85.777 163.364C85.8987 163.279 86.0392 163.225 86.1864 163.206C86.3336 163.188 86.4831 163.206 86.622 163.258L89.2328 164.23C89.3927 164.289 89.5658 164.302 89.7329 164.268C89.8999 164.234 90.0541 164.155 90.1783 164.038C90.3025 163.921 90.3917 163.772 90.4358 163.607C90.48 163.443 90.4774 163.269 90.4284 163.106L89.613 160.444C89.5677 160.302 89.5583 160.15 89.5855 160.002C89.6128 159.855 89.6759 159.717 89.7694 159.6L91.5226 157.398C91.6278 157.265 91.6937 157.104 91.7127 156.935C91.7317 156.765 91.7032 156.594 91.6304 156.44C91.5576 156.286 91.4433 156.156 91.3004 156.063C91.1575 155.97 90.9916 155.919 90.8213 155.916L88.033 155.865C87.8839 155.861 87.7381 155.82 87.6084 155.747C87.4787 155.673 87.3692 155.568 87.2895 155.442L85.7474 153.119C85.6529 152.972 85.5179 152.855 85.3588 152.782C85.1996 152.709 85.0229 152.684 84.8497 152.709C84.6765 152.734 84.5141 152.808 84.3819 152.923C84.2497 153.037 84.1533 153.188 84.104 153.355Z" fill="#FFD550"/>
<path d="M107.948 141.56C107.948 141.56 113.719 140.952 114.222 146.013L114.746 151.082" stroke="#DADEEB" stroke-width="1.26741" stroke-miterlimit="10" stroke-linecap="round"/>
<path d="M64.0034 144.196C64.0034 144.196 57.2439 144.733 53.374 147.386" stroke="#DADEEB" stroke-width="1.26741" stroke-miterlimit="10" stroke-linecap="round"/>
<path d="M59.4145 161.708C59.4145 161.708 58.0415 155.514 50.9313 157.808C43.8212 160.102 41.261 164.817 41.2863 167.039C41.2863 168.07 40.6104 187.14 46.301 188.716C48.7345 189.392 58.9751 188.649 61.0199 179.819C63.0646 170.989 59.4145 161.708 59.4145 161.708Z" fill="#F3ABAA"/>
<path d="M58.0175 160.994C58.0175 160.994 52.8507 161.737 50.3074 163.854" stroke="#FF2633" stroke-width="0.844939" stroke-miterlimit="10" stroke-linecap="round"/>
<path d="M59.3565 166.372C59.3565 166.372 54.1897 167.115 51.6464 169.232" stroke="#FF2633" stroke-width="0.844939" stroke-miterlimit="10" stroke-linecap="round"/>
<path d="M59.9561 171.268C59.9561 171.268 54.7682 172.012 52.2334 174.124" stroke="#FF2633" stroke-width="0.844939" stroke-miterlimit="10" stroke-linecap="round"/>
<path d="M59.9561 177.187C59.9561 177.187 55.837 177.187 53.2938 179.299" stroke="#FF2633" stroke-width="0.844939" stroke-miterlimit="10" stroke-linecap="round"/>
<path d="M39.3789 22C36.5992 23.5884 25.3789 31 24.8789 44C24.8789 46 25.3789 50.7 29.3789 51.5L33.3789 53" stroke="white" stroke-linecap="round"/>
</svg>
