<svg viewBox="0 0 289 330" fill="none" xmlns="http://www.w3.org/2000/svg">
<path d="M80.079 121.522L20.4704 139.851C19.6348 140.039 18.7703 140.06 17.9263 139.914C17.0824 139.767 16.2757 139.456 15.5524 138.997C14.829 138.538 14.2032 137.941 13.7108 137.241C13.2184 136.54 12.869 135.749 12.6827 134.913L1.15675 83.2156C0.779794 81.5274 1.08875 79.7587 2.01569 78.2982C2.94263 76.8378 4.41164 75.8053 6.0997 75.4278L67.3437 65.3495C69.5225 64.9911 71.7559 65.4801 73.5857 66.7161C75.4155 67.9521 76.7029 69.8415 77.1838 71.9966L85.9748 111.394C86.445 113.514 86.0993 115.733 85.0068 117.61C83.9142 119.487 82.1549 120.884 80.079 121.522V121.522Z" stroke="#DADEEB" stroke-width="1.37431" stroke-miterlimit="10" stroke-linecap="round"/>
<path d="M100.052 239.388C91.9758 225.081 77.605 195.286 73.7798 158.72" stroke="#DADEEB" stroke-width="1.37431" stroke-miterlimit="10" stroke-linecap="round"/>
<path d="M207.775 226.813C211.289 216.41 214.349 204.366 214.812 193.037" stroke="#DADEEB" stroke-width="1.37431" stroke-miterlimit="10" stroke-linecap="round"/>
<path d="M219.37 232.347C219.37 232.347 221.161 215.507 231.569 204.073L243.59 213.354C243.59 213.354 227.382 217.33 219.37 232.347Z" fill="#FFD550"/>
<path d="M245.907 242.473C266.012 243.914 281.166 259.958 279.857 278.222C278.547 296.486 261.261 310.204 241.155 308.763C221.05 307.322 205.896 291.278 207.206 273.014C208.515 254.75 225.802 241.032 245.907 242.473Z" stroke="#DADEEB"/>
<path d="M229.504 157.745C229.504 157.745 236.925 158.203 240.379 154.249C242.148 152.229 246.5 147.964 252.006 145.518C257.512 143.072 251.488 152.962 251.699 153.764C251.974 154.836 262.148 147.886 263.679 150.076C265.209 152.266 266.844 158.207 259.959 164.172C253.073 170.136 231.465 178.731 225.445 178.03C219.426 177.329 221.84 163.393 229.504 157.745Z" fill="#F3ABAA"/>
<path d="M250.723 154.391L246.623 158.262" stroke="#0D0F44" stroke-width="0.916209" stroke-miterlimit="10" stroke-linecap="round"/>
<path d="M75.4066 111.009C75.4066 111.009 73.8307 107.711 73.5741 101.645C73.3359 95.8686 71.9158 85.0115 68.4205 85.0115C66.7667 85.0115 63.2576 86.4728 63.5462 96.8077C63.5462 96.8077 62.7675 100.999 55.5569 93.1978C48.3463 85.3963 45.5107 85.8956 43.3759 87.5402C39.592 90.4629 33.4304 97.9758 38.5979 108.892C43.7653 119.809 61.1137 128.591 61.1137 128.591L75.4066 111.009Z" fill="#F3ABAA"/>
<path d="M43.5912 89.4504C43.5912 89.4504 48.9786 95.9784 52.0387 97.6963" stroke="#0D0F44" stroke-width="0.916209" stroke-miterlimit="10" stroke-linecap="round"/>
<path d="M41.3418 93.578C41.3418 93.578 46.7245 100.106 49.7892 101.824" stroke="#0D0F44" stroke-width="0.916209" stroke-miterlimit="10" stroke-linecap="round"/>
<path d="M39.3671 98.498C39.3671 98.498 44.7499 105.017 47.8146 106.744" stroke="#0D0F44" stroke-width="0.916209" stroke-miterlimit="10" stroke-linecap="round"/>
<path d="M39.3671 104.806C41.0596 106.839 42.8562 108.782 44.7499 110.629" stroke="#0D0F44" stroke-width="0.916209" stroke-miterlimit="10" stroke-linecap="round"/>
<path d="M86.2719 264.79L136.37 229.182C137.915 228.084 139.683 227.342 141.549 227.011C143.415 226.68 145.331 226.767 147.159 227.267L225.036 248.463C226.38 248.827 227.605 249.538 228.589 250.523C229.572 251.509 230.279 252.736 230.64 254.081C231 255.426 231.001 256.842 230.642 258.188C230.284 259.533 229.578 260.761 228.596 261.748L164.883 326.089C162.764 328.234 159.924 329.516 156.914 329.685C153.904 329.855 150.938 328.899 148.592 327.005L85.9008 276.188C85.0445 275.491 84.3608 274.606 83.903 273.601C83.4452 272.597 83.2257 271.5 83.2616 270.397C83.2975 269.294 83.5879 268.213 84.1101 267.241C84.6322 266.268 85.3721 265.429 86.2719 264.79V264.79Z" fill="#0D0F44"/>
<path d="M230.575 247.258L230.913 257.428L225.938 261.666L230.575 247.258Z" fill="#0D0F44"/>
<path d="M83.2623 263.997V271.634L90.9218 275.633L83.2623 263.997Z" fill="#0D0F44"/>
<path d="M86.2727 258.175L136.371 222.562C137.915 221.464 139.684 220.723 141.55 220.392C143.416 220.061 145.332 220.148 147.159 220.647L225.037 241.844C226.381 242.207 227.606 242.918 228.589 243.904C229.573 244.89 230.28 246.117 230.64 247.462C231.001 248.807 231.002 250.223 230.643 251.568C230.284 252.914 229.579 254.141 228.597 255.129L164.883 319.469C162.762 321.611 159.921 322.889 156.91 323.054C153.9 323.219 150.936 322.26 148.593 320.363L85.9017 269.568C85.0462 268.871 84.3633 267.986 83.906 266.982C83.4488 265.978 83.2295 264.882 83.2655 263.78C83.3014 262.677 83.5914 261.597 84.1131 260.625C84.6347 259.653 85.3738 258.815 86.2727 258.175Z" fill="#22319E"/>
<path d="M216.181 256.507L193.276 279.628L192.515 276.421C191.347 271.24 187.701 254.785 184.521 237.569L213.181 245.357C214.31 245.661 215.339 246.256 216.166 247.083C216.993 247.91 217.588 248.939 217.892 250.068C218.196 251.197 218.198 252.386 217.897 253.517C217.597 254.647 217.005 255.678 216.181 256.507V256.507Z" fill="#DADEEB"/>
<path d="M126.594 291.685L128.046 294.223L96.46 268.629C95.7421 268.045 95.169 267.302 94.7854 266.46C94.4018 265.617 94.2182 264.698 94.2488 263.773C94.2794 262.847 94.5234 261.942 94.9618 261.127C95.4002 260.311 96.0212 259.609 96.7761 259.073L111.545 248.578C114.938 263.463 119.985 277.923 126.594 291.685V291.685Z" fill="#DADEEB"/>
<path d="M160.554 46.2192C160.554 46.2192 174.902 43.805 177.619 70.3109C179.703 90.6507 181.636 93.8163 182.232 95.7128C182.827 97.6094 195.64 112.049 191.966 127.111C191.966 127.111 186.249 146.352 168.47 149.581C150.691 152.811 148.593 109.442 148.593 109.442C148.593 109.442 146.174 53.3106 160.554 46.2192Z" fill="#22319E"/>
<path d="M61.2786 226.809C69.9414 226.809 76.9641 219.786 76.9641 211.123C76.9641 202.46 69.9414 195.438 61.2786 195.438C52.6157 195.438 45.5931 202.46 45.5931 211.123C45.5931 219.786 52.6157 226.809 61.2786 226.809Z" fill="#22319E"/>
<path d="M66.8404 210.825L60.798 218.613C60.6967 218.747 60.5606 218.85 60.4044 218.912C60.2483 218.974 60.0783 218.991 59.9128 218.963C59.7474 218.935 59.5929 218.861 59.4662 218.751C59.3396 218.641 59.2457 218.498 59.1947 218.338L55.7452 207.884C55.6913 207.725 55.6822 207.555 55.7187 207.391C55.7552 207.227 55.836 207.076 55.9523 206.955C56.0686 206.834 56.2158 206.748 56.378 206.705C56.5402 206.662 56.7111 206.664 56.8721 206.711L66.3594 209.359C66.5082 209.398 66.6449 209.473 66.757 209.578C66.8691 209.683 66.9529 209.815 67.0008 209.961C67.0487 210.107 67.0591 210.262 67.0311 210.414C67.0031 210.565 66.9375 210.706 66.8404 210.825Z" fill="white"/>
<path d="M284.073 110.221L241.863 123.479C241.162 123.699 240.424 123.779 239.692 123.714C238.959 123.649 238.247 123.44 237.595 123.1C236.943 122.76 236.365 122.294 235.893 121.73C235.421 121.166 235.065 120.515 234.845 119.814L226.407 92.9459C225.979 91.5851 226.087 90.1124 226.709 88.8285C227.33 87.5446 228.418 86.5464 229.751 86.0377L271.471 70.0957C272.284 69.8399 273.14 69.7471 273.99 69.8223C274.839 69.8976 275.666 70.1396 276.422 70.5344C277.178 70.9292 277.849 71.4691 278.396 72.1233C278.943 72.7774 279.356 73.533 279.611 74.3469L288.315 102.076C288.832 103.719 288.676 105.499 287.88 107.027C287.085 108.554 285.715 109.703 284.073 110.221V110.221Z" fill="#22319E"/>
<path d="M264.613 100.331L258.781 102.699L251.355 96.9268L252.217 90.6966C252.262 90.3815 252.388 90.0836 252.583 89.8321C252.778 89.5807 253.036 89.3845 253.33 89.2627L266.761 83.8021C266.874 83.7568 266.996 83.7418 267.117 83.7587C267.237 83.7757 267.35 83.8239 267.446 83.8987C267.542 83.9734 267.616 84.072 267.661 84.1845C267.707 84.297 267.722 84.4195 267.705 84.5397L265.721 98.9013C265.676 99.215 265.55 99.5117 265.356 99.7622C265.161 100.013 264.905 100.209 264.613 100.331V100.331Z" stroke="white" stroke-width="1.83242" stroke-miterlimit="10" stroke-linecap="round"/>
<path d="M258.818 102.726L254.003 108.915C253.513 109.543 252.469 109.548 251.667 108.915L247.114 105.37C246.312 104.747 246.06 103.73 246.546 103.102L251.356 96.9268L258.818 102.726Z" stroke="white" stroke-width="1.83242" stroke-miterlimit="10" stroke-linecap="round"/>
<path d="M267.448 83.8983L260.485 92.8543" stroke="white" stroke-width="1.83242" stroke-miterlimit="10" stroke-linecap="round"/>
<path d="M258.927 97.4582C260.344 97.4582 261.493 96.3096 261.493 94.8928C261.493 93.476 260.344 92.3274 258.927 92.3274C257.511 92.3274 256.362 93.476 256.362 94.8928C256.362 96.3096 257.511 97.4582 258.927 97.4582Z" stroke="white" stroke-width="1.83242" stroke-miterlimit="10" stroke-linecap="round"/>
<path d="M193.286 279.628L162.721 310.495C160.942 312.292 158.558 313.363 156.032 313.501C153.507 313.639 151.021 312.834 149.056 311.242L128.047 294.223L126.595 291.685C119.986 277.923 114.939 263.463 111.546 248.578C104.592 218.604 105.728 195.653 105.728 195.653L179.24 195.754C178.961 204.54 181.531 221.407 184.532 237.569C187.711 254.785 191.357 271.24 192.526 276.421L193.286 279.628Z" fill="#0D0F44"/>
<path d="M134.218 228.879L140.805 231.399C140.805 231.399 141.002 252.293 165.286 305.873" stroke="#DADEEB" stroke-width="0.916209" stroke-miterlimit="10" stroke-linecap="round"/>
<path d="M140.897 99.5425C140.897 99.5425 121.198 100.66 113.868 114.939C104.876 132.347 94.0784 130.231 79.0021 112.255C78.4455 111.589 77.672 111.14 76.8175 110.988C75.963 110.835 75.0821 110.989 74.3295 111.421C68.7406 114.628 57.1277 122.704 62.5333 131.761C69.5423 143.498 90.7434 168.029 108.802 166.627C108.802 166.627 105.563 187.068 105.765 195.653C105.765 195.653 116.874 209.689 144.539 209.084C172.204 208.48 179.277 195.754 179.277 195.754C179.277 195.754 179.579 174.75 180.491 169.298C180.491 169.298 198.696 182.908 225.481 178.039C225.481 178.039 221.908 165.702 229.54 157.745C229.54 157.745 203.075 150.438 200.157 146.379C197.239 142.32 189.195 119.713 187.6 116.332C185.516 111.902 179.355 104.476 167.508 100.903C155.661 97.3299 140.897 99.5425 140.897 99.5425Z" fill="#FF2633"/>
<path d="M118.175 117.761C118.175 117.761 112.091 135.243 109.077 163.549" stroke="#DADEEB" stroke-width="0.916209" stroke-miterlimit="10" stroke-linecap="round"/>
<path d="M161.314 128.586C161.314 128.586 166.59 146.242 170.316 156.5C171.528 159.838 172.576 162.393 173.225 163.302C175.868 167.003 180.449 169.298 180.449 169.298" stroke="white" stroke-width="0.916209" stroke-miterlimit="10" stroke-linecap="round"/>
<path d="M224.607 156.329C224.607 156.329 216.75 160.406 220.136 176.742" stroke="white" stroke-width="0.916209" stroke-miterlimit="10" stroke-linecap="round"/>
<path d="M81.0778 114.678C81.0778 114.678 71.2423 119.571 66.4826 128.586" stroke="white" stroke-width="0.916209" stroke-miterlimit="10" stroke-linecap="round"/>
<path d="M135.807 51.0704C135.807 51.0704 127.231 54.9643 133.297 68.8128L140.878 55.4362L135.807 51.0704Z" fill="#22319E"/>
<path d="M163.44 78.2865C163.44 78.2865 159.052 100.578 159.052 102.387C159.052 104.197 147.004 107.055 140.233 101.471C140.233 101.471 145.272 86.8989 146.161 83.2523C147.049 79.6058 157.141 75.5654 163.44 78.2865Z" fill="#F3ABAA"/>
<path d="M163.44 78.2865L145.006 87.1691C144.36 89.2031 143.563 91.6265 142.784 93.917C142.784 93.917 159.042 96.487 163.44 78.2865Z" fill="#0D0F44"/>
<path d="M165.872 69.5962C165.872 79.1294 158.57 89.4459 149.559 89.4459C138.592 89.4459 132.564 82.9454 133.242 69.5962C133.727 60.1272 140.548 52.344 149.559 52.344C158.57 52.344 165.872 60.0676 165.872 69.5962Z" fill="#F3ABAA"/>
<path d="M158.3 69.9581C148.593 70.8972 135.757 63.3889 135.807 51.0705C135.858 38.752 147.15 38.2939 148.859 38.2939C150.567 38.2939 165.497 40.5478 170.074 55.4729C174.65 70.3979 162.368 69.5642 158.3 69.9581Z" fill="#22319E"/>
<path d="M167.002 77.0118C170.446 75.0231 172.253 71.7041 171.037 69.5985C169.822 67.4928 166.044 67.398 162.6 69.3866C159.155 71.3752 157.349 74.6943 158.564 76.7999C159.78 78.9055 163.558 79.0004 167.002 77.0118Z" fill="#F3ABAA"/>
<path d="M149.303 82.8538C149.303 82.8538 153.064 83.3348 154.599 80.041" stroke="#0D0F44" stroke-width="0.916209" stroke-miterlimit="10" stroke-linecap="round"/>
<path d="M163.422 73.9574L168.543 71.7448" stroke="#0D0F44" stroke-width="0.916209" stroke-miterlimit="10" stroke-linecap="round"/>
<path d="M142.133 71.5935L141.075 76.1058C141.045 76.2368 141.041 76.3726 141.066 76.5048C141.09 76.637 141.142 76.7628 141.217 76.8742C141.292 76.9856 141.39 77.0803 141.503 77.1522C141.617 77.2242 141.744 77.2719 141.877 77.2923L142.963 77.4664" stroke="#0D0F44" stroke-width="0.916209" stroke-miterlimit="10" stroke-linecap="round"/>
<path d="M139.164 69.4933C139.32 68.187 138.902 67.0626 138.228 66.9819C137.555 66.9011 136.882 67.8946 136.726 69.2009C136.569 70.5071 136.988 71.6315 137.661 71.7123C138.334 71.793 139.007 70.7996 139.164 69.4933Z" fill="#0D0F44"/>
<path d="M148.595 71.1148C148.752 69.8085 148.333 68.6841 147.66 68.6033C146.986 68.5226 146.314 69.5161 146.157 70.8223C146 72.1286 146.419 73.253 147.092 73.3337C147.765 73.4145 148.438 72.421 148.595 71.1148Z" fill="#0D0F44"/>
<path d="M88.6546 14.949C87.9948 11.746 86.5078 8.77166 84.3416 6.32186C82.1753 3.87205 79.4053 2.03221 76.3071 0.985398C73.209 -0.0614141 69.8908 -0.278702 66.6826 0.355153C63.4744 0.989009 60.4881 2.45191 58.0208 4.5983C55.5536 6.74469 53.6914 9.49973 52.6196 12.5893C51.5477 15.6789 51.3036 18.9953 51.9115 22.2085C52.5194 25.4217 53.9581 28.4197 56.0845 30.9042C58.2108 33.3888 60.9507 35.2732 64.0315 36.3699C64.7268 36.623 65.345 37.051 65.8265 37.6128C66.308 38.1745 66.6364 38.8509 66.7801 39.5767L67.2382 41.7252C67.4423 42.7116 67.8387 43.6481 68.4048 44.4813C68.9709 45.3144 69.6956 46.0279 70.5375 46.5809C71.3794 47.134 72.322 47.5157 73.3114 47.7044C74.3009 47.8931 75.3178 47.885 76.3041 47.6805V47.6805C77.2905 47.4765 78.227 47.0801 79.0602 46.514C79.8934 45.9479 80.6068 45.2232 81.1599 44.3813C81.7129 43.5394 82.0947 42.5968 82.2833 41.6074C82.472 40.6179 82.4639 39.601 82.2595 38.6147L81.8014 36.4845C81.6479 35.7656 81.681 35.0194 81.8975 34.317C82.114 33.6145 82.5067 32.9792 83.0383 32.4715C85.4059 30.283 87.1674 27.5194 88.1515 24.449C89.1356 21.3787 89.3089 18.1061 88.6546 14.949V14.949Z" fill="#FFD550"/>
<path d="M70.7602 37.4876L81.7089 35.2246" stroke="#FF2633" stroke-width="2.29052" stroke-miterlimit="10" stroke-linecap="round"/>
<path d="M72.2769 3.88123C72.2769 3.88123 80.0234 5.04481 82.2635 11.8522" stroke="white" stroke-width="1.83242" stroke-miterlimit="10" stroke-linecap="round"/>
<path d="M49.4592 6.72595C49.4592 6.72595 43.229 13.7487 46.6602 24.3355" stroke="#FF2633" stroke-width="2.29052" stroke-miterlimit="10" stroke-linecap="round"/>
<path d="M43.4989 1.9342C43.4989 1.9342 34.3368 12.2736 39.3759 27.8629" stroke="#FF2633" stroke-width="2.29052" stroke-miterlimit="10" stroke-linecap="round"/>
</svg>
